# xmcd
#
# Track frame offsets: 
#        150
#        64310
#        102592
#        143985
#        169057
#        207265
#        256320
#        287872
#
# Disc length: 4623 seconds
#
# Revision: 11
# Processed by: cddbd v1.5.2PL0 Copyright (c) Steve Scherf et al.
# Submitted via: ExactAudioCopy v1.0b3
#
DISCID=7f120d08
DTITLE=Chopin - Chopin - CD9 - Polonaises
DYEAR=1998
DGENRE=Classique
TTITLE0=Folke Nauta - Andante spianato et Grande Polonaise Brillante O
TTITLE0=p.22  in E flat major  [Folke Nauta, piano]
TTITLE1=Folke Nauta - Polonaise Op.26 - N1  in C sharp minor
TTITLE2=Folke Nauta - Polonaise Op.26 - N2  in E flat minor
TTITLE3=Folke Nauta - Polonaise Op.40 - N1  in A major ''Military''
TTITLE4=Folke Nauta - Polonaise Op.40 - N2  in C minor
TTITLE5=Folke Nauta - Polonaise Op.44  in F sharp minor
TTITLE6=Folke Nauta - Polonaise Op.53  in A flat major ''Heroic''
TTITLE7=Folke Nauta - Polonaise-Fantaisie Op.61  in A flat major
EXTD=Folke Nauta, piano YEAR: 1998
EXTT0=
EXTT1=
EXTT2=
EXTT3=
EXTT4=
EXTT5=
EXTT6=
EXTT7=
PLAYORDER=
